{
  "accessors": [
    {
      "bufferView": 3,
      "componentType": 5126,
      "count": 750,
      "max": [
        9.659440994262695,
        6.659165859222412,
        3.0820834636688232
      ],
      "min": [
        -10.013981819152832,
        -6.24186372756958,
        -3.0820834636688232
      ],
      "type": "VEC3"
    },
    {
      "bufferView": 3,
      "byteOffset": 9000,
      "componentType": 5126,
      "count": 750,
      "max": [
        0.999957799911499,
        0.9994641542434692,
        0.9994099140167236
      ],
      "min": [
        -0.9995215535163879,
        -0.9998646974563599,
        -1.0
      ],
      "type": "VEC3"
    },
    {
      "bufferView": 2,
      "componentType": 5126,
      "count": 750,
      "max": [
        0.9624508023262024,
        0.9699872732162476
      ],
      "min": [
        0.019555112347006798,
        0.05756722763180733
      ],
      "type": "VEC2"
    },
    {
      "bufferView": 1,
      "componentType": 5125,
      "count": 2883,
      "type": "SCALAR"
    },
    {
      "bufferView": 5,
      "componentType": 5126,
      "count": 28,
      "max": [
        1.0,
        0.36652475595474243,
        0.9978709816932678,
        0.0,
        1.0,
        1.0,
        0.36652469635009766,
        0.0,
        1.0000001192092896,
        1.8044971739072935e-07,
        1.0,
        0.0,
        3.1533706188201904,
        7.817615985870361,
        3.1533443927764893,
        1.0
      ],
      "min": [
        -0.8930802345275879,
        -1.0,
        -3.3263454213283694e-08,
        0.0,
        -0.02760958857834339,
        -0.997870922088623,
        -0.986045777797699,
        0.0,
        -3.6955432278773515e-06,
        -2.071933096203793e-07,
        -1.1187353265995625e-06,
        0.0,
        -7.4618096351623535,
        -5.984656810760498,
        -8.347258567810059,
        1.0
      ],
      "type": "MAT4"
    },
    {
      "bufferView": 0,
      "componentType": 5123,
      "count": 750,
      "type": "VEC4"
    },
    {
      "bufferView": 4,
      "componentType": 5126,
      "count": 750,
      "max": [
        1.0,
        0.47532424330711365,
        0.3191806375980377,
        0.22709599137306213
      ],
      "min": [
        0.29786255955696106,
        0.0,
        0.0,
        0.0
      ],
      "type": "VEC4"
    },
    {
      "bufferView": 6,
      "componentType": 5126,
      "count": 126,
      "max": [
        5.25
      ],
      "min": [
        0.0416666679084301
      ],
      "type": "SCALAR"
    },
    {
      "bufferView": 8,
      "componentType": 5126,
      "count": 126,
      "max": [
        0.24212735891342163,
        0.19749902188777924,
        0.10385753959417343,
        0.9971230030059814
      ],
      "min": [
        -0.10432849824428558,
        -0.1345948874950409,
        -0.17546619474887848,
        0.9459391832351685
      ],
      "type": "VEC4"
    },
    {
      "bufferView": 6,
      "byteOffset": 504,
      "componentType": 5126,
      "count": 124,
      "max": [
        5.25
      ],
      "min": [
        0.0416666679084301
      ],
      "type": "SCALAR"
    },
    {
      "bufferView": 7,
      "componentType": 5126,
      "count": 124,
      "max": [
        1.0000001192092896,
        1.0000001192092896,
        1.0000001192092896
      ],
      "min": [
        0.9999998807907104,
        0.9999998807907104,
        0.9999998807907104
      ],
      "type": "VEC3"
    }
  ],
  "animations": [
    {
      "channels": [
        {
          "sampler": 0,
          "target": {
            "node": 34,
            "path": "rotation"
          }
        },
        {
          "sampler": 1,
          "target": {
            "node": 34,
            "path": "scale"
          }
        }
      ],
      "name": "ArmatureAction",
      "samplers": [
        {
          "input": 7,
          "interpolation": "LINEAR",
          "output": 8
        },
        {
          "input": 9,
          "interpolation": "LINEAR",
          "output": 10
        }
      ]
    }
  ],
  "asset": {
    "extras": {
      "author": "victory_mirosya (https://sketchfab.com/victory_mirosya)",
      "license": "CC-BY-4.0 (http://creativecommons.org/licenses/by/4.0/)",
      "source": "https://sketchfab.com/3d-models/bison-3c1734c020cc47fa90166a15ce585430",
      "title": "БИЗОН BISON"
    },
    "generator": "Sketchfab-12.65.0",
    "version": "2.0"
  },
  "bufferViews": [
    {
      "buffer": 0,
      "byteLength": 6000,
      "byteStride": 8,
      "name": "shortBufferViews",
      "target": 34962
    },
    {
      "buffer": 0,
      "byteLength": 11532,
      "byteOffset": 6000,
      "name": "floatBufferViews",
      "target": 34963
    },
    {
      "buffer": 0,
      "byteLength": 6000,
      "byteOffset": 17532,
      "byteStride": 8,
      "name": "floatBufferViews",
      "target": 34962
    },
    {
      "buffer": 0,
      "byteLength": 18000,
      "byteOffset": 23532,
      "byteStride": 12,
      "name": "floatBufferViews",
      "target": 34962
    },
    {
      "buffer": 0,
      "byteLength": 12000,
      "byteOffset": 41532,
      "byteStride": 16,
      "name": "floatBufferViews",
      "target": 34962
    },
    {
      "buffer": 0,
      "byteLength": 1792,
      "byteOffset": 53532,
      "name": "floatBufferViews"
    },
    {
      "buffer": 0,
      "byteLength": 1000,
      "byteOffset": 55324,
      "name": "floatBufferViews"
    },
    {
      "buffer": 0,
      "byteLength": 1488,
      "byteOffset": 56324,
      "byteStride": 12,
      "name": "floatBufferViews"
    },
    {
      "buffer": 0,
      "byteLength": 2016,
      "byteOffset": 57812,
      "byteStride": 16,
      "name": "floatBufferViews"
    }
  ],
  "buffers": [
    {
      "byteLength": 59828,
      "uri": "scene.bin"
    }
  ],
  "images": [
    {
      "uri": "textures/Material.001_baseColor.jpeg"
    }
  ],
  "materials": [
    {
      "doubleSided": true,
      "name": "Material.001",
      "pbrMetallicRoughness": {
        "baseColorTexture": {
          "index": 0
        },
        "metallicFactor": 0.0,
        "roughnessFactor": 0.25666308022214135
      }
    }
  ],
  "meshes": [
    {
      "name": "Object_0",
      "primitives": [
        {
          "attributes": {
            "JOINTS_0": 5,
            "NORMAL": 1,
            "POSITION": 0,
            "TEXCOORD_0": 2,
            "WEIGHTS_0": 6
          },
          "indices": 3,
          "material": 0,
          "mode": 4
        }
      ]
    }
  ],
  "nodes": [
    {
      "children": [
        1
      ],
      "matrix": [
        1.0,
        0.0,
        0.0,
        0.0,
        0.0,
        2.220446049250313e-16,
        -1.0,
        0.0,
        0.0,
        1.0,
        2.220446049250313e-16,
        0.0,
        0.0,
        0.0,
        0.0,
        1.0
      ],
      "name": "Sketchfab_model"
    },
    {
      "children": [
        2
      ],
      "name": "root"
    },
    {
      "children": [
        3
      ],
      "matrix": [
        1.0,
        0.0,
        0.0,
        0.0,
        0.0,
        2.220446049250313e-16,
        1.0,
        0.0,
        0.0,
        -1.0,
        2.220446049250313e-16,
        0.0,
        0.0,
        0.0,
        0.0,
        1.0
      ],
      "name": "GLTF_SceneRootNode"
    },
    {
      "children": [
        4
      ],
      "name": "Armature_28"
    },
    {
      "children": [
        5,
        7,
        6
      ],
      "name": "GLTF_created_0"
    },
    {
      "children": [
        8,
        9,
        12,
        13,
        16,
        17,
        21,
        22,
        26
      ],
      "name": "GLTF_created_0_rootJoint"
    },
    {
      "name": "Plane_27"
    },
    {
      "mesh": 0,
      "name": "Object_7",
      "skin": 0
    },
    {
      "name": "Bone.005_0",
      "rotation": [
        6.538936503375226e-08,
        7.167196258706099e-08,
        0.07752328366041183,
        0.9969905614852905
      ],
      "translation": [
        -2.1446919441223145,
        -2.2293505668640137,
        1.7280410528182983
      ]
    },
    {
      "children": [
        10
      ],
      "name": "Bone.006_3",
      "rotation": [
        -0.7053282856941223,
        -0.05012613162398338,
        -0.7053275108337402,
        0.05012611299753189
      ],
      "translation": [
        -2.1446914672851563,
        -2.2293505668640137,
        1.7280410528182983
      ]
    },
    {
      "children": [
        11
      ],
      "name": "Bone.007_2",
      "rotation": [
        -0.3419880270957947,
        3.3645864050413365e-07,
        2.7209267727812403e-07,
        0.9397042989730835
      ],
      "translation": [
        -2.9434133352879144e-07,
        2.1949713230133057,
        3.774187860017264e-07
      ]
    },
    {
      "name": "Bone.008_1",
      "rotation": [
        0.054296430200338364,
        -1.1092223672903856e-07,
        -4.314680168704399e-09,
        0.9985249042510986
      ],
      "translation": [
        -2.453589900142106e-07,
        1.2294174432754517,
        1.1988176140675932e-07
      ]
    },
    {
      "name": "Bone.009_4",
      "rotation": [
        6.538936503375226e-08,
        7.167196258706099e-08,
        0.07752328366041183,
        0.9969905614852905
      ],
      "translation": [
        -2.1446917057037354,
        -2.2293505668640137,
        -1.878142237663269
      ]
    },
    {
      "children": [
        14
      ],
      "name": "Bone.010_7",
      "rotation": [
        -0.7053282856941223,
        -0.05012613162398338,
        -0.7053275108337402,
        0.05012611299753189
      ],
      "translation": [
        -2.1446917057037354,
        -2.2293505668640137,
        -1.8781423568725586
      ]
    },
    {
      "children": [
        15
      ],
      "name": "Bone.011_6",
      "rotation": [
        -0.3419880270957947,
        3.3645864050413365e-07,
        2.7209267727812403e-07,
        0.9397042989730835
      ],
      "translation": [
        -2.9434170301101403e-07,
        2.194971799850464,
        5.218757692659892e-08
      ]
    },
    {
      "name": "Bone.012_5",
      "rotation": [
        0.054296430200338364,
        -1.1092223672903856e-07,
        -4.314680168704399e-09,
        0.9985249042510986
      ],
      "translation": [
        -2.453589900142106e-07,
        1.2294186353683472,
        2.3181142694284063e-07
      ]
    },
    {
      "name": "Bone.013_8",
      "rotation": [
        7.542976732111129e-08,
        1.848275815063971e-06,
        -0.013806111179292202,
        0.9999046921730042
      ],
      "scale": [
        1.0,
        0.9999999403953552,
        1.0
      ],
      "translation": [
        6.416769504547119,
        -1.643556833267212,
        3.0859246253967285
      ]
    },
    {
      "children": [
        18
      ],
      "name": "Bone.014_12",
      "rotation": [
        -0.694695770740509,
        -0.13190117478370667,
        -0.6946956515312195,
        0.13190120458602905
      ],
      "scale": [
        1.0,
        0.9999998807907104,
        1.0
      ],
      "translation": [
        6.416769504547119,
        -1.643557071685791,
        3.0859243869781494
      ]
    },
    {
      "children": [
        19
      ],
      "name": "Bone.015_11",
      "rotation": [
        -0.21849198639392853,
        -1.1672591426759027e-07,
        1.5301196754080593e-07,
        0.9758387804031372
      ],
      "scale": [
        1.0,
        1.0,
        0.9999999403953552
      ],
      "translation": [
        -4.7221323029589257e-07,
        1.1584516763687134,
        3.2111888259578336e-08
      ]
    },
    {
      "children": [
        20
      ],
      "name": "Bone.016_10",
      "rotation": [
        -0.21021293103694916,
        3.071261858167418e-07,
        -6.737878521789753e-08,
        0.9776556491851807
      ],
      "scale": [
        1.0,
        0.9999999403953552,
        1.0
      ],
      "translation": [
        -2.3045254238240886e-07,
        2.503943681716919,
        -2.6579865419762427e-08
      ]
    },
    {
      "name": "Bone.017_9",
      "rotation": [
        -0.44156768918037415,
        -1.03615498403542e-07,
        -2.4674525533896485e-08,
        0.897227942943573
      ],
      "scale": [
        1.0,
        1.0,
        0.9999999403953552
      ],
      "translation": [
        2.3851558239584847e-07,
        0.8693758249282837,
        6.850335125818674e-07
      ]
    },
    {
      "name": "Bone.018_13",
      "rotation": [
        7.542976732111129e-08,
        1.848275815063971e-06,
        -0.013806111179292202,
        0.9999046921730042
      ],
      "scale": [
        1.0,
        0.9999999403953552,
        1.0
      ],
      "translation": [
        6.416769504547119,
        -1.643556833267212,
        -3.1533684730529785
      ]
    },
    {
      "children": [
        23
      ],
      "name": "Bone.019_17",
      "rotation": [
        -0.6946957111358643,
        -0.13190118968486786,
        -0.6946956515312195,
        0.13190118968486786
      ],
      "scale": [
        0.9999999403953552,
        1.0000001192092896,
        1.0
      ],
      "translation": [
        6.416769504547119,
        -1.643556833267212,
        -3.1533684730529785
      ]
    },
    {
      "children": [
        24
      ],
      "name": "Bone.020_16",
      "rotation": [
        -0.21849200129508972,
        -1.603493018365043e-07,
        1.4324463393222686e-07,
        0.9758387804031372
      ],
      "scale": [
        0.9999999403953552,
        1.0000001192092896,
        1.0
      ],
      "translation": [
        1.541401895011063e-09,
        1.1584513187408447,
        3.109883550678205e-07
      ]
    },
    {
      "children": [
        25
      ],
      "name": "Bone.021_15",
      "rotation": [
        -0.21021299064159393,
        3.071262142384512e-07,
        -6.737877811247017e-08,
        0.9776557087898254
      ],
      "scale": [
        0.9999999403953552,
        0.9999999403953552,
        1.0
      ],
      "translation": [
        7.966864501440796e-09,
        2.503944158554077,
        4.979245886715944e-07
      ]
    },
    {
      "name": "Bone.022_14",
      "rotation": [
        -0.44156762957572937,
        -1.0361544156012314e-07,
        -2.4674521981182806e-08,
        0.8972280025482178
      ],
      "translation": [
        -4.76739757004907e-07,
        0.869376003742218,
        -2.1920716619661107e-07
      ]
    },
    {
      "children": [
        27
      ],
      "name": "Bone_26",
      "rotation": [
        -3.8201328322884365e-08,
        8.149616093078293e-08,
        0.6819704174995422,
        0.7313797473907471
      ],
      "translation": [
        8.077938079833984,
        3.4454078674316406,
        -0.0407489538192749
      ]
    },
    {
      "children": [
        28
      ],
      "name": "Bone.001_25",
      "rotation": [
        -2.2362913298934473e-08,
        -2.835805332779273e-07,
        0.03493766859173775,
        0.9993895888328552
      ],
      "translation": [
        9.623952479387299e-08,
        2.6817667484283447,
        3.5566074529924663e-09
      ]
    },
    {
      "children": [
        29
      ],
      "name": "Bone.002_24",
      "rotation": [
        -1.7347513647791857e-08,
        1.2486299283409608e-07,
        -0.06536706537008286,
        0.9978613257408142
      ],
      "translation": [
        -1.635413582334877e-08,
        2.1334033012390137,
        7.121575551494175e-10
      ]
    },
    {
      "children": [
        30
      ],
      "name": "Bone.003_23",
      "rotation": [
        -5.155860627326092e-09,
        -1.4669629955221808e-08,
        -0.03327794745564461,
        0.9994462132453918
      ],
      "scale": [
        0.9999999403953552,
        0.9999999403953552,
        1.0
      ],
      "translation": [
        -3.042017908683192e-07,
        1.2979062795639038,
        1.2760033030190243e-09
      ]
    },
    {
      "children": [
        31
      ],
      "name": "Bone.004_22",
      "rotation": [
        2.218029138134625e-08,
        -1.3291507627855026e-07,
        0.0732303261756897,
        0.9973150491714478
      ],
      "translation": [
        6.712268429964752e-08,
        1.0360252857208252,
        -1.6537811120542756e-09
      ]
    },
    {
      "children": [
        32
      ],
      "name": "Bone.023_21",
      "rotation": [
        5.3379260123165295e-08,
        1.3767711948275974e-07,
        0.12378135323524475,
        0.9923095107078552
      ],
      "scale": [
        0.9999999403953552,
        0.9999998807907104,
        1.0
      ],
      "translation": [
        -2.2696910662034497e-07,
        2.0005300045013428,
        -2.5467156161695925e-10
      ]
    },
    {
      "children": [
        33
      ],
      "name": "Bone.024_20",
      "rotation": [
        4.199674208393844e-08,
        -1.3617763272577577e-07,
        0.11089903861284256,
        0.9938316941261292
      ],
      "scale": [
        0.9999999403953552,
        0.9999998807907104,
        1.0
      ],
      "translation": [
        -2.3134434457006137e-07,
        3.6260881423950195,
        -2.2645312292013386e-09
      ]
    },
    {
      "children": [
        34
      ],
      "name": "Bone.025_19",
      "rotation": [
        1.2186289666260564e-07,
        4.820519095005693e-09,
        0.23595602810382843,
        0.9717637300491333
      ],
      "scale": [
        0.9999999403953552,
        0.9999999403953552,
        1.0
      ],
      "translation": [
        -3.859966852814978e-07,
        2.410266399383545,
        2.7418420867064697e-09
      ]
    },
    {
      "name": "Bone.026_18",
      "rotation": [
        7.645363098163216e-08,
        -6.846983069408452e-08,
        0.10385753959417343,
        0.9945921897888184
      ],
      "translation": [
        5.069997541795601e-07,
        1.5178276300430298,
        -1.717224029640363e-09
      ]
    }
  ],
  "samplers": [
    {
      "magFilter": 9729,
      "minFilter": 9987,
      "wrapS": 10497,
      "wrapT": 10497
    }
  ],
  "scene": 0,
  "scenes": [
    {
      "name": "Sketchfab_Scene",
      "nodes": [
        0
      ]
    }
  ],
  "skins": [
    {
      "inverseBindMatrices": 4,
      "joints": [
        5,
        8,
        9,
        10,
        11,
        12,
        13,
        14,
        15,
        16,
        17,
        18,
        19,
        20,
        21,
        22,
        23,
        24,
        25,
        26,
        27,
        28,
        29,
        30,
        31,
        32,
        33,
        34
      ],
      "skeleton": 5
    }
  ],
  "textures": [
    {
      "sampler": 0,
      "source": 0
    }
  ]
}
