{
	"asset":{
		"generator":"Khronos glTF Blender I/O v4.4.56",
		"version":"2.0"
	},
	"scene":0,
	"scenes":[
		{
			"name":"Scene",
			"nodes":[
				4
			]
		}
	],
	"nodes":[
		{
			"mesh":0,
			"name":"Mesh_0_Material_0_0"
		},
		{
			"children":[
				0
			],
			"name":"Mesh_0",
			"rotation":[
				-0.5,
				-0.5000000596046448,
				-0.5,
				0.5000001192092896
			],
			"scale":[
				100.00001525878906,
				100.00001525878906,
				100.00000762939453
			]
		},
		{
			"children":[
				1
			],
			"name":"RootNode"
		},
		{
			"children":[
				2
			],
			"name":"214568e4f8044d6ea97d2f7ba1239cb6.fbx",
			"rotation":[
				0.70710688829422,
				0,
				0,
				0.7071066498756409
			],
			"scale":[
				0.009999999776482582,
				0.010000000707805157,
				0.010000000707805157
			]
		},
		{
			"children":[
				3
			],
			"name":"Sketchfab_model",
			"rotation":[
				-0.7071068286895752,
				0,
				0,
				0.7071068286895752
			]
		}
	],
	"materials":[
		{
			"doubleSided":true,
			"name":"Material_0",
			"pbrMetallicRoughness":{
				"baseColorTexture":{
					"index":0
				},
				"metallicFactor":0,
				"roughnessFactor":0.8868629336357117
			}
		}
	],
	"meshes":[
		{
			"name":"Mesh_0_Material_0_0",
			"primitives":[
				{
					"attributes":{
						"POSITION":0,
						"NORMAL":1,
						"TEXCOORD_0":2
					},
					"indices":3,
					"material":0
				}
			]
		}
	],
	"textures":[
		{
			"sampler":0,
			"source":0
		}
	],
	"images":[
		{
			"mimeType":"image/jpeg",
			"name":"Material_0_baseColor",
			"uri":"Material_0_baseColor.jpg"
		}
	],
	"accessors":[
		{
			"bufferView":0,
			"componentType":5126,
			"count":32886,
			"max":[
				0.6000000238418579,
				0.20949570834636688,
				0.4249400198459625
			],
			"min":[
				-0.6000000238418579,
				-0.20949570834636688,
				-0.4249400198459625
			],
			"type":"VEC3"
		},
		{
			"bufferView":1,
			"componentType":5126,
			"count":32886,
			"type":"VEC3"
		},
		{
			"bufferView":2,
			"componentType":5126,
			"count":32886,
			"type":"VEC2"
		},
		{
			"bufferView":3,
			"componentType":5123,
			"count":177204,
			"type":"SCALAR"
		}
	],
	"bufferViews":[
		{
			"buffer":0,
			"byteLength":394632,
			"byteOffset":0,
			"target":34962
		},
		{
			"buffer":0,
			"byteLength":394632,
			"byteOffset":394632,
			"target":34962
		},
		{
			"buffer":0,
			"byteLength":263088,
			"byteOffset":789264,
			"target":34962
		},
		{
			"buffer":0,
			"byteLength":354408,
			"byteOffset":1052352,
			"target":34963
		}
	],
	"samplers":[
		{
			"magFilter":9729,
			"minFilter":9987
		}
	],
	"buffers":[
		{
			"byteLength":1406760,
			"uri":"Leon.bin"
		}
	]
}
