{
	"asset":{
		"generator":"Khronos glTF Blender I/O v4.4.56",
		"version":"2.0"
	},
	"extensionsUsed":[
		"KHR_materials_specular"
	],
	"scene":0,
	"scenes":[
		{
			"name":"Scene",
			"nodes":[
				0
			]
		}
	],
	"nodes":[
		{
			"mesh":0,
			"name":"Wolf_Quad"
		}
	],
	"materials":[
		{
			"doubleSided":true,
			"extensions":{
				"KHR_materials_specular":{
					"specularFactor":0
				}
			},
			"name":"Wolf_Quad_Material",
			"pbrMetallicRoughness":{
				"baseColorFactor":[
					0.800000011920929,
					0.800000011920929,
					0.800000011920929,
					1
				],
				"metallicFactor":0
			}
		}
	],
	"meshes":[
		{
			"name":"Wolf_Quad",
			"primitives":[
				{
					"attributes":{
						"POSITION":0,
						"NORMAL":1,
						"TEXCOORD_0":2
					},
					"indices":3,
					"material":0
				}
			]
		}
	],
	"accessors":[
		{
			"bufferView":0,
			"componentType":5126,
			"count":10961,
			"max":[
				0.19678400456905365,
				1.1745421886444092,
				0.29589179158210754
			],
			"min":[
				-0.20665299892425537,
				-0.27879226207733154,
				-0.8506511449813843
			],
			"type":"VEC3"
		},
		{
			"bufferView":1,
			"componentType":5126,
			"count":10961,
			"type":"VEC3"
		},
		{
			"bufferView":2,
			"componentType":5126,
			"count":10961,
			"type":"VEC2"
		},
		{
			"bufferView":3,
			"componentType":5123,
			"count":52032,
			"type":"SCALAR"
		}
	],
	"bufferViews":[
		{
			"buffer":0,
			"byteLength":131532,
			"byteOffset":0,
			"target":34962
		},
		{
			"buffer":0,
			"byteLength":131532,
			"byteOffset":131532,
			"target":34962
		},
		{
			"buffer":0,
			"byteLength":87688,
			"byteOffset":263064,
			"target":34962
		},
		{
			"buffer":0,
			"byteLength":104064,
			"byteOffset":350752,
			"target":34963
		}
	],
	"buffers":[
		{
			"byteLength":454816,
			"uri":"Lobohpt.bin"
		}
	]
}
