{
	"asset":{
		"generator":"Khronos glTF Blender I/O v4.4.56",
		"version":"2.0"
	},
	"scene":0,
	"scenes":[
		{
			"name":"Scene",
			"nodes":[
				0
			]
		}
	],
	"nodes":[
		{
			"mesh":0,
			"name":"Alligator_Low_Poly"
		}
	],
	"materials":[
		{
			"doubleSided":true,
			"name":"Aligator_Tris_Material",
			"normalTexture":{
				"index":0
			},
			"pbrMetallicRoughness":{
				"baseColorTexture":{
					"index":1
				},
				"metallicFactor":0,
				"metallicRoughnessTexture":{
					"index":2
				}
			}
		}
	],
	"meshes":[
		{
			"name":"Aligator.004",
			"primitives":[
				{
					"attributes":{
						"POSITION":0,
						"NORMAL":1,
						"TEXCOORD_0":2
					},
					"indices":3,
					"material":0
				}
			]
		}
	],
	"textures":[
		{
			"sampler":0,
			"source":0
		},
		{
			"sampler":0,
			"source":1
		},
		{
			"sampler":0,
			"source":2
		}
	],
	"images":[
		{
			"mimeType":"image/png",
			"name":"Alligator_Tris_Normal",
			"uri":"Alligator_Tris_Normal.png"
		},
		{
			"mimeType":"image/png",
			"name":"Alligator_Tris_Diffuse",
			"uri":"Alligator_Tris_Diffuse.png"
		},
		{
			"mimeType":"image/png",
			"name":"Alligator_Tris_Roughness",
			"uri":"Alligator_Tris_Roughness.png"
		}
	],
	"accessors":[
		{
			"bufferView":0,
			"componentType":5126,
			"count":1537,
			"max":[
				0.7574874758720398,
				0.8111860752105713,
				1.9506760835647583
			],
			"min":[
				-0.7518089413642883,
				-6.118789315223694e-07,
				-2.961980104446411
			],
			"type":"VEC3"
		},
		{
			"bufferView":1,
			"componentType":5126,
			"count":1537,
			"type":"VEC3"
		},
		{
			"bufferView":2,
			"componentType":5126,
			"count":1537,
			"type":"VEC2"
		},
		{
			"bufferView":3,
			"componentType":5123,
			"count":2988,
			"type":"SCALAR"
		}
	],
	"bufferViews":[
		{
			"buffer":0,
			"byteLength":18444,
			"byteOffset":0,
			"target":34962
		},
		{
			"buffer":0,
			"byteLength":18444,
			"byteOffset":18444,
			"target":34962
		},
		{
			"buffer":0,
			"byteLength":12296,
			"byteOffset":36888,
			"target":34962
		},
		{
			"buffer":0,
			"byteLength":5976,
			"byteOffset":49184,
			"target":34963
		}
	],
	"samplers":[
		{
			"magFilter":9729,
			"minFilter":9987
		}
	],
	"buffers":[
		{
			"byteLength":55160,
			"uri":"coco.bin"
		}
	]
}
