{
  "accessors": [
    {
      "bufferView": 2,
      "componentType": 5126,
      "count": 1000,
      "max": [
        8.187108993530273,
        16.301254272460938,
        1.8919097185134888
      ],
      "min": [
        -3.9294681549072266,
        1.0135431289672852,
        -3.532500982284546
      ],
      "type": "VEC3"
    },
    {
      "bufferView": 2,
      "byteOffset": 12000,
      "componentType": 5126,
      "count": 1000,
      "max": [
        0.9980970025062561,
        0.9991052150726318,
        0.9998418092727661
      ],
      "min": [
        -0.9970494508743286,
        -0.9987167119979858,
        -0.9992495179176331
      ],
      "type": "VEC3"
    },
    {
      "bufferView": 1,
      "componentType": 5126,
      "count": 1000,
      "max": [
        0.9533737301826477,
        0.9761594533920288
      ],
      "min": [
        0.04082244634628296,
        0.025887906551361084
      ],
      "type": "VEC2"
    },
    {
      "bufferView": 0,
      "componentType": 5125,
      "count": 4575,
      "type": "SCALAR"
    },
    {
      "bufferView": 2,
      "byteOffset": 24000,
      "componentType": 5126,
      "count": 2176,
      "max": [
        8.729330062866211,
        18.357528686523438,
        2.2001168727874756
      ],
      "min": [
        -4.44579553604126,
        0.26193538308143616,
        -4.101185321807861
      ],
      "type": "VEC3"
    },
    {
      "bufferView": 2,
      "byteOffset": 50112,
      "componentType": 5126,
      "count": 2176,
      "max": [
        0.9994957447052002,
        0.9995469450950623,
        0.9999327659606934
      ],
      "min": [
        -0.9994486570358276,
        -0.999180257320404,
        -0.9999819993972778
      ],
      "type": "VEC3"
    },
    {
      "bufferView": 1,
      "byteOffset": 8000,
      "componentType": 5126,
      "count": 2176,
      "max": [
        0.9815643429756165,
        0.9911032915115356
      ],
      "min": [
        0.020214229822158813,
        0.029282689094543457
      ],
      "type": "VEC2"
    },
    {
      "bufferView": 0,
      "byteOffset": 18300,
      "componentType": 5125,
      "count": 9609,
      "type": "SCALAR"
    },
    {
      "bufferView": 2,
      "byteOffset": 76224,
      "componentType": 5126,
      "count": 74,
      "max": [
        6.308880805969238,
        16.277976989746094,
        1.1489673852920532
      ],
      "min": [
        4.855444431304932,
        14.524336814880371,
        -0.21572265028953552
      ],
      "type": "VEC3"
    },
    {
      "bufferView": 2,
      "byteOffset": 77112,
      "componentType": 5126,
      "count": 74,
      "max": [
        0.9800496101379395,
        0.9666010141372681,
        0.9984375238418579
      ],
      "min": [
        -0.980049192905426,
        -0.9666024446487427,
        -0.9984375238418579
      ],
      "type": "VEC3"
    },
    {
      "bufferView": 1,
      "byteOffset": 25408,
      "componentType": 5126,
      "count": 74,
      "max": [
        0.17731040716171265,
        0.244523286819458
      ],
      "min": [
        0.019511163234710693,
        0.1712172031402588
      ],
      "type": "VEC2"
    },
    {
      "bufferView": 0,
      "byteOffset": 56736,
      "componentType": 5125,
      "count": 360,
      "type": "SCALAR"
    },
    {
      "bufferView": 2,
      "byteOffset": 78000,
      "componentType": 5126,
      "count": 74,
      "max": [
        4.352107048034668,
        16.7959041595459,
        1.1452327966690063
      ],
      "min": [
        2.90535306930542,
        15.042262077331543,
        -0.21198758482933044
      ],
      "type": "VEC3"
    },
    {
      "bufferView": 2,
      "byteOffset": 78888,
      "componentType": 5126,
      "count": 74,
      "max": [
        0.9752981662750244,
        0.966601550579071,
        0.9929725527763367
      ],
      "min": [
        -0.9752979278564453,
        -0.966602087020874,
        -0.9929725527763367
      ],
      "type": "VEC3"
    },
    {
      "bufferView": 1,
      "byteOffset": 26000,
      "componentType": 5126,
      "count": 74,
      "max": [
        0.17731040716171265,
        0.244523286819458
      ],
      "min": [
        0.019511163234710693,
        0.1712172031402588
      ],
      "type": "VEC2"
    },
    {
      "bufferView": 0,
      "byteOffset": 58176,
      "componentType": 5125,
      "count": 360,
      "type": "SCALAR"
    },
    {
      "bufferView": 2,
      "byteOffset": 79776,
      "componentType": 5126,
      "count": 36,
      "max": [
        6.358457088470459,
        15.617325782775879,
        1.1562392711639404
      ],
      "min": [
        4.697447776794434,
        14.287884712219238,
        -0.31258702278137207
      ],
      "type": "VEC3"
    },
    {
      "bufferView": 2,
      "byteOffset": 80208,
      "componentType": 5126,
      "count": 36,
      "max": [
        0.9928404092788696,
        0.8972446322441101,
        0.9915812611579895
      ],
      "min": [
        -0.9744514226913452,
        -0.9580767154693604,
        -0.7017726898193359
      ],
      "type": "VEC3"
    },
    {
      "bufferView": 1,
      "byteOffset": 26592,
      "componentType": 5126,
      "count": 36,
      "max": [
        0.04896444082260132,
        0.42724180221557617
      ],
      "min": [
        0.005822709761559963,
        0.35652023553848267
      ],
      "type": "VEC2"
    },
    {
      "bufferView": 0,
      "byteOffset": 59616,
      "componentType": 5125,
      "count": 162,
      "type": "SCALAR"
    },
    {
      "bufferView": 2,
      "byteOffset": 80640,
      "componentType": 5126,
      "count": 36,
      "max": [
        6.459184169769287,
        16.5069637298584,
        1.210875391960144
      ],
      "min": [
        4.805543899536133,
        15.181783676147461,
        -0.2989792227745056
      ],
      "type": "VEC3"
    },
    {
      "bufferView": 2,
      "byteOffset": 81072,
      "componentType": 5126,
      "count": 36,
      "max": [
        0.9693988561630249,
        0.9520288109779358,
        0.9944283962249756
      ],
      "min": [
        -0.9887481331825256,
        -0.9089465737342834,
        -0.6898639798164368
      ],
      "type": "VEC3"
    },
    {
      "bufferView": 1,
      "byteOffset": 26880,
      "componentType": 5126,
      "count": 36,
      "max": [
        0.04896444082260132,
        0.42724180221557617
      ],
      "min": [
        0.005822709761559963,
        0.35652023553848267
      ],
      "type": "VEC2"
    },
    {
      "bufferView": 0,
      "byteOffset": 60264,
      "componentType": 5125,
      "count": 162,
      "type": "SCALAR"
    },
    {
      "bufferView": 2,
      "byteOffset": 81504,
      "componentType": 5126,
      "count": 36,
      "max": [
        4.405023574829102,
        16.135250091552734,
        1.1563633680343628
      ],
      "min": [
        2.7440152168273926,
        14.805810928344727,
        -0.31258687376976013
      ],
      "type": "VEC3"
    },
    {
      "bufferView": 2,
      "byteOffset": 81936,
      "componentType": 5126,
      "count": 36,
      "max": [
        0.9929096698760986,
        0.8972447514533997,
        0.9943166971206665
      ],
      "min": [
        -0.9744622707366943,
        -0.9580764174461365,
        -0.70177161693573
      ],
      "type": "VEC3"
    },
    {
      "bufferView": 1,
      "byteOffset": 27168,
      "componentType": 5126,
      "count": 36,
      "max": [
        0.04896444082260132,
        0.42724180221557617
      ],
      "min": [
        0.005822709761559963,
        0.35652023553848267
      ],
      "type": "VEC2"
    },
    {
      "bufferView": 0,
      "byteOffset": 60912,
      "componentType": 5125,
      "count": 162,
      "type": "SCALAR"
    },
    {
      "bufferView": 2,
      "byteOffset": 82368,
      "componentType": 5126,
      "count": 36,
      "max": [
        4.505752086639404,
        17.024890899658203,
        1.2107930183410645
      ],
      "min": [
        2.852112293243408,
        15.699707984924316,
        -0.29897913336753845
      ],
      "type": "VEC3"
    },
    {
      "bufferView": 2,
      "byteOffset": 82800,
      "componentType": 5126,
      "count": 36,
      "max": [
        0.9694574475288391,
        0.9520297646522522,
        0.9927591681480408
      ],
      "min": [
        -0.9887958765029907,
        -0.9089393019676208,
        -0.6898634433746338
      ],
      "type": "VEC3"
    },
    {
      "bufferView": 1,
      "byteOffset": 27456,
      "componentType": 5126,
      "count": 36,
      "max": [
        0.04896444082260132,
        0.42724180221557617
      ],
      "min": [
        0.005822709761559963,
        0.35652023553848267
      ],
      "type": "VEC2"
    },
    {
      "bufferView": 0,
      "byteOffset": 61560,
      "componentType": 5125,
      "count": 162,
      "type": "SCALAR"
    },
    {
      "bufferView": 2,
      "byteOffset": 83232,
      "componentType": 5126,
      "count": 116,
      "max": [
        5.761145114898682,
        14.546133041381836,
        2.0627036094665527
      ],
      "min": [
        2.4848105907440186,
        12.578947067260742,
        0.089010089635849
      ],
      "type": "VEC3"
    },
    {
      "bufferView": 2,
      "byteOffset": 84624,
      "componentType": 5126,
      "count": 116,
      "max": [
        0.9854568839073181,
        0.45615383982658386,
        0.8139448165893555
      ],
      "min": [
        -0.9701047539710999,
        -0.9937915802001953,
        -0.9183793663978577
      ],
      "type": "VEC3"
    },
    {
      "bufferView": 1,
      "byteOffset": 27744,
      "componentType": 5126,
      "count": 116,
      "max": [
        0.9036441445350647,
        0.058480918407440186
      ],
      "min": [
        0.8254650235176086,
        0.035423338413238525
      ],
      "type": "VEC2"
    },
    {
      "bufferView": 0,
      "byteOffset": 62208,
      "componentType": 5125,
      "count": 312,
      "type": "SCALAR"
    },
    {
      "bufferView": 2,
      "byteOffset": 86016,
      "componentType": 5126,
      "count": 116,
      "max": [
        6.159151077270508,
        15.086492538452148,
        2.05678391456604
      ],
      "min": [
        2.3391873836517334,
        13.200552940368652,
        0.19540506601333618
      ],
      "type": "VEC3"
    },
    {
      "bufferView": 2,
      "byteOffset": 87408,
      "componentType": 5126,
      "count": 116,
      "max": [
        0.9917142391204834,
        0.4998153746128082,
        0.9979903697967529
      ],
      "min": [
        -0.969852864742279,
        -0.9861958622932434,
        -0.9684164524078369
      ],
      "type": "VEC3"
    },
    {
      "bufferView": 1,
      "byteOffset": 28672,
      "componentType": 5126,
      "count": 116,
      "max": [
        0.9036441445350647,
        0.058480918407440186
      ],
      "min": [
        0.8254650235176086,
        0.035423338413238525
      ],
      "type": "VEC2"
    },
    {
      "bufferView": 0,
      "byteOffset": 63456,
      "componentType": 5125,
      "count": 312,
      "type": "SCALAR"
    }
  ],
  "asset": {
    "extras": {
      "author": "HumAi Club (https://sketchfab.com/2ndlr)",
      "license": "CC-BY-4.0 (http://creativecommons.org/licenses/by/4.0/)",
      "source": "https://sketchfab.com/3d-models/just-monkey-body-353a648db4034239b131b77c5d55186f",
      "title": "JUST MONKEY BODY"
    },
    "generator": "Sketchfab-12.68.0",
    "version": "2.0"
  },
  "bufferViews": [
    {
      "buffer": 0,
      "byteLength": 64704,
      "name": "floatBufferViews",
      "target": 34963
    },
    {
      "buffer": 0,
      "byteLength": 29600,
      "byteOffset": 64704,
      "byteStride": 8,
      "name": "floatBufferViews",
      "target": 34962
    },
    {
      "buffer": 0,
      "byteLength": 88800,
      "byteOffset": 94304,
      "byteStride": 12,
      "name": "floatBufferViews",
      "target": 34962
    }
  ],
  "buffers": [
    {
      "byteLength": 183104,
      "uri": "scene.bin"
    }
  ],
  "images": [
    {
      "uri": "textures/Material_0.002_baseColor.png"
    }
  ],
  "materials": [
    {
      "doubleSided": true,
      "name": "Material_0.002",
      "pbrMetallicRoughness": {
        "baseColorTexture": {
          "index": 0
        },
        "roughnessFactor": 0.896474
      }
    },
    {
      "doubleSided": true,
      "name": "Material_0.003",
      "pbrMetallicRoughness": {
        "baseColorTexture": {
          "index": 0
        },
        "roughnessFactor": 0.896474
      }
    }
  ],
  "meshes": [
    {
      "name": "Object_0",
      "primitives": [
        {
          "attributes": {
            "NORMAL": 1,
            "POSITION": 0,
            "TEXCOORD_0": 2
          },
          "indices": 3,
          "material": 0,
          "mode": 4
        }
      ]
    },
    {
      "name": "Object_1",
      "primitives": [
        {
          "attributes": {
            "NORMAL": 5,
            "POSITION": 4,
            "TEXCOORD_0": 6
          },
          "indices": 7,
          "material": 1,
          "mode": 4
        }
      ]
    },
    {
      "name": "Object_2",
      "primitives": [
        {
          "attributes": {
            "NORMAL": 9,
            "POSITION": 8,
            "TEXCOORD_0": 10
          },
          "indices": 11,
          "material": 0,
          "mode": 4
        }
      ]
    },
    {
      "name": "Object_3",
      "primitives": [
        {
          "attributes": {
            "NORMAL": 13,
            "POSITION": 12,
            "TEXCOORD_0": 14
          },
          "indices": 15,
          "material": 0,
          "mode": 4
        }
      ]
    },
    {
      "name": "Object_4",
      "primitives": [
        {
          "attributes": {
            "NORMAL": 17,
            "POSITION": 16,
            "TEXCOORD_0": 18
          },
          "indices": 19,
          "material": 0,
          "mode": 4
        }
      ]
    },
    {
      "name": "Object_5",
      "primitives": [
        {
          "attributes": {
            "NORMAL": 21,
            "POSITION": 20,
            "TEXCOORD_0": 22
          },
          "indices": 23,
          "material": 0,
          "mode": 4
        }
      ]
    },
    {
      "name": "Object_6",
      "primitives": [
        {
          "attributes": {
            "NORMAL": 25,
            "POSITION": 24,
            "TEXCOORD_0": 26
          },
          "indices": 27,
          "material": 0,
          "mode": 4
        }
      ]
    },
    {
      "name": "Object_7",
      "primitives": [
        {
          "attributes": {
            "NORMAL": 29,
            "POSITION": 28,
            "TEXCOORD_0": 30
          },
          "indices": 31,
          "material": 0,
          "mode": 4
        }
      ]
    },
    {
      "name": "Object_8",
      "primitives": [
        {
          "attributes": {
            "NORMAL": 33,
            "POSITION": 32,
            "TEXCOORD_0": 34
          },
          "indices": 35,
          "material": 0,
          "mode": 4
        }
      ]
    },
    {
      "name": "Object_9",
      "primitives": [
        {
          "attributes": {
            "NORMAL": 37,
            "POSITION": 36,
            "TEXCOORD_0": 38
          },
          "indices": 39,
          "material": 0,
          "mode": 4
        }
      ]
    }
  ],
  "nodes": [
    {
      "children": [
        1
      ],
      "matrix": [
        1.0,
        0.0,
        0.0,
        0.0,
        0.0,
        2.220446049250313e-16,
        -1.0,
        0.0,
        0.0,
        1.0,
        2.220446049250313e-16,
        0.0,
        0.0,
        0.0,
        0.0,
        1.0
      ],
      "name": "Sketchfab_model"
    },
    {
      "children": [
        2
      ],
      "name": "root"
    },
    {
      "children": [
        3,
        6,
        8,
        10,
        12,
        14,
        16,
        18,
        20
      ],
      "matrix": [
        1.0,
        0.0,
        0.0,
        0.0,
        0.0,
        2.220446049250313e-16,
        1.0,
        0.0,
        0.0,
        -1.0,
        2.220446049250313e-16,
        0.0,
        0.0,
        0.0,
        0.0,
        1.0
      ],
      "name": "GLTF_SceneRootNode"
    },
    {
      "children": [
        4,
        5
      ],
      "name": "Monkey_Body.001_0"
    },
    {
      "mesh": 0,
      "name": "Object_4"
    },
    {
      "mesh": 1,
      "name": "Object_5"
    },
    {
      "children": [
        7
      ],
      "name": "Monkey_Eye_L_1"
    },
    {
      "mesh": 2,
      "name": "Object_7"
    },
    {
      "children": [
        9
      ],
      "name": "Monkey_Eye_R_2"
    },
    {
      "mesh": 3,
      "name": "Object_9"
    },
    {
      "children": [
        11
      ],
      "name": "Monkey_Eyelid_Leftdown_3"
    },
    {
      "mesh": 4,
      "name": "Object_11"
    },
    {
      "children": [
        13
      ],
      "name": "Monkey_Eyelid_Leftup_4"
    },
    {
      "mesh": 5,
      "name": "Object_13"
    },
    {
      "children": [
        15
      ],
      "name": "Monkey_Eyelid_Rightdown_5"
    },
    {
      "mesh": 6,
      "name": "Object_15"
    },
    {
      "children": [
        17
      ],
      "name": "Monkey_Eyelid_Rightup_6"
    },
    {
      "mesh": 7,
      "name": "Object_17"
    },
    {
      "children": [
        19
      ],
      "name": "Monkey_Teeth_Down_7"
    },
    {
      "mesh": 8,
      "name": "Object_19"
    },
    {
      "children": [
        21
      ],
      "name": "Monkey_Teeth_Up_8"
    },
    {
      "mesh": 9,
      "name": "Object_21"
    }
  ],
  "samplers": [
    {
      "magFilter": 9729,
      "minFilter": 9987,
      "wrapS": 10497,
      "wrapT": 10497
    }
  ],
  "scene": 0,
  "scenes": [
    {
      "name": "Sketchfab_Scene",
      "nodes": [
        0
      ]
    }
  ],
  "textures": [
    {
      "sampler": 0,
      "source": 0
    }
  ]
}
