{
	"asset":{
		"generator":"Khronos glTF Blender I/O v4.4.56",
		"version":"2.0"
	},
	"scene":0,
	"scenes":[
		{
			"name":"Scene",
			"nodes":[
				2
			]
		}
	],
	"nodes":[
		{
			"mesh":0,
			"name":"Object_2"
		},
		{
			"children":[
				0
			],
			"name":"Regal_Peacock_0202072850_texture.obj.cleaner.materialmerger.gle",
			"rotation":[
				-0.7071065902709961,
				0,
				0,
				0.7071069478988647
			],
			"scale":[
				0.65437912940979,
				0.65437912940979,
				0.65437912940979
			]
		},
		{
			"children":[
				1
			],
			"name":"Sketchfab_model",
			"rotation":[
				-0.9999383687973022,
				0,
				0,
				0.011110426858067513
			]
		}
	],
	"materials":[
		{
			"doubleSided":true,
			"name":"Material.001",
			"pbrMetallicRoughness":{
				"baseColorTexture":{
					"index":0
				},
				"metallicFactor":0,
				"roughnessFactor":0.8011823296546936
			}
		}
	],
	"meshes":[
		{
			"name":"Object_0",
			"primitives":[
				{
					"attributes":{
						"POSITION":0,
						"NORMAL":1,
						"TEXCOORD_0":2
					},
					"indices":3,
					"material":0
				}
			]
		}
	],
	"textures":[
		{
			"sampler":0,
			"source":0
		}
	],
	"images":[
		{
			"mimeType":"image/png",
			"name":"Material.001_baseColor",
			"uri":"Material_001_baseColor.png"
		}
	],
	"accessors":[
		{
			"bufferView":0,
			"componentType":5126,
			"count":15027,
			"max":[
				0.24229200184345245,
				1.0048749446868896,
				0.5492929816246033
			],
			"min":[
				-0.24706900119781494,
				-1.003957986831665,
				-0.5434640049934387
			],
			"type":"VEC3"
		},
		{
			"bufferView":1,
			"componentType":5126,
			"count":15027,
			"type":"VEC3"
		},
		{
			"bufferView":2,
			"componentType":5126,
			"count":15027,
			"type":"VEC2"
		},
		{
			"bufferView":3,
			"componentType":5123,
			"count":62409,
			"type":"SCALAR"
		}
	],
	"bufferViews":[
		{
			"buffer":0,
			"byteLength":180324,
			"byteOffset":0,
			"target":34962
		},
		{
			"buffer":0,
			"byteLength":180324,
			"byteOffset":180324,
			"target":34962
		},
		{
			"buffer":0,
			"byteLength":120216,
			"byteOffset":360648,
			"target":34962
		},
		{
			"buffer":0,
			"byteLength":124818,
			"byteOffset":480864,
			"target":34963
		}
	],
	"samplers":[
		{
			"magFilter":9729,
			"minFilter":9987
		}
	],
	"buffers":[
		{
			"byteLength":605684,
			"uri":"Untitled.bin"
		}
	]
}
