{
  "accessors": [
    {
      "bufferView": 2,
      "componentType": 5126,
      "count": 11924,
      "max": [
        13.38879680633545,
        -1.4487857818603516,
        15.551410675048828
      ],
      "min": [
        -13.390694618225098,
        -31.395395278930664,
        -10.50206184387207
      ],
      "type": "VEC3"
    },
    {
      "bufferView": 2,
      "byteOffset": 143088,
      "componentType": 5126,
      "count": 11924,
      "max": [
        0.9999266266822815,
        0.9995856285095215,
        0.9997368454933167
      ],
      "min": [
        -0.9994102716445923,
        -0.9999622106552124,
        -0.9999337792396545
      ],
      "type": "VEC3"
    },
    {
      "bufferView": 3,
      "componentType": 5126,
      "count": 11924,
      "max": [
        0.9999997019767761,
        0.9999996423721313,
        0.9969021081924438,
        -1.0
      ],
      "min": [
        -1.0,
        -0.9999991655349731,
        -0.9872122406959534,
        -1.0
      ],
      "type": "VEC4"
    },
    {
      "bufferView": 1,
      "componentType": 5126,
      "count": 11924,
      "max": [
        0.9996330142021179,
        0.9288330078125
      ],
      "min": [
        0.00012199999764561653,
        0.0003659999929368496
      ],
      "type": "VEC2"
    },
    {
      "bufferView": 0,
      "componentType": 5125,
      "count": 29997,
      "type": "SCALAR"
    }
  ],
  "asset": {
    "extras": {
      "author": "Renafox (https://sketchfab.com/kryik1023)",
      "license": "CC-BY-4.0 (http://creativecommons.org/licenses/by/4.0/)",
      "source": "https://sketchfab.com/3d-models/project-inu-sakuya-doll-3d-scan-7a573802931f485db8118a9d64f26362",
      "title": "東方 Project - Inu Sakuya Doll (3D scan)"
    },
    "generator": "Sketchfab-12.67.0",
    "version": "2.0"
  },
  "bufferViews": [
    {
      "buffer": 0,
      "byteLength": 119988,
      "name": "floatBufferViews",
      "target": 34963
    },
    {
      "buffer": 0,
      "byteLength": 95392,
      "byteOffset": 119988,
      "byteStride": 8,
      "name": "floatBufferViews",
      "target": 34962
    },
    {
      "buffer": 0,
      "byteLength": 286176,
      "byteOffset": 215380,
      "byteStride": 12,
      "name": "floatBufferViews",
      "target": 34962
    },
    {
      "buffer": 0,
      "byteLength": 190784,
      "byteOffset": 501556,
      "byteStride": 16,
      "name": "floatBufferViews",
      "target": 34962
    }
  ],
  "buffers": [
    {
      "byteLength": 692340,
      "uri": "scene.bin"
    }
  ],
  "images": [
    {
      "uri": "textures/sakuya_low_Material_u1_v1_baseColor.png"
    },
    {
      "uri": "textures/sakuya_low_Material_u1_v1_metallicRoughness.png"
    },
    {
      "uri": "textures/sakuya_low_Material_u1_v1_normal.png"
    }
  ],
  "materials": [
    {
      "doubleSided": true,
      "emissiveFactor": [
        1.0,
        1.0,
        1.0
      ],
      "emissiveTexture": {
        "index": 0
      },
      "name": "sakuya_low_Material_u1_v1",
      "normalTexture": {
        "index": 2
      },
      "occlusionTexture": {
        "index": 1
      },
      "pbrMetallicRoughness": {
        "baseColorTexture": {
          "index": 0
        },
        "metallicFactor": 0.0,
        "metallicRoughnessTexture": {
          "index": 1
        },
        "roughnessFactor": 0.6
      }
    }
  ],
  "meshes": [
    {
      "name": "Object_0",
      "primitives": [
        {
          "attributes": {
            "NORMAL": 1,
            "POSITION": 0,
            "TANGENT": 2,
            "TEXCOORD_0": 3
          },
          "indices": 4,
          "material": 0,
          "mode": 4
        }
      ]
    }
  ],
  "nodes": [
    {
      "children": [
        1
      ],
      "matrix": [
        1.0,
        0.0,
        0.0,
        0.0,
        0.0,
        -1.0,
        -4.440892098500626e-16,
        0.0,
        0.0,
        4.440892098500626e-16,
        -1.0,
        0.0,
        0.0,
        -13.89745903015137,
        18.94672584533691,
        1.0
      ],
      "name": "Sketchfab_model"
    },
    {
      "children": [
        2
      ],
      "name": "sakuya_low.obj.cleaner.materialmerger.gles"
    },
    {
      "mesh": 0,
      "name": "Object_2"
    }
  ],
  "samplers": [
    {
      "magFilter": 9729,
      "minFilter": 9987,
      "wrapS": 10497,
      "wrapT": 10497
    }
  ],
  "scene": 0,
  "scenes": [
    {
      "name": "Sketchfab_Scene",
      "nodes": [
        0
      ]
    }
  ],
  "textures": [
    {
      "sampler": 0,
      "source": 0
    },
    {
      "sampler": 0,
      "source": 1
    },
    {
      "sampler": 0,
      "source": 2
    }
  ]
}
