{
	"asset":{
		"generator":"Khronos glTF Blender I/O v4.4.56",
		"version":"2.0"
	},
	"extensionsUsed":[
		"KHR_materials_specular"
	],
	"scene":0,
	"scenes":[
		{
			"name":"Scene",
			"nodes":[
				0
			]
		}
	],
	"nodes":[
		{
			"mesh":0,
			"name":"Wolf_Quad",
			"rotation":[
				0.7074670791625977,
				0,
				0,
				0.7067463994026184
			]
		}
	],
	"materials":[
		{
			"doubleSided":true,
			"extensions":{
				"KHR_materials_specular":{
					"specularFactor":0
				}
			},
			"name":"Wolf_Quad_Material",
			"normalTexture":{
				"index":0
			},
			"pbrMetallicRoughness":{
				"baseColorTexture":{
					"index":1
				},
				"metallicFactor":0,
				"metallicRoughnessTexture":{
					"index":2
				}
			}
		}
	],
	"meshes":[
		{
			"name":"Wolf_Quad",
			"primitives":[
				{
					"attributes":{
						"POSITION":0,
						"NORMAL":1,
						"TEXCOORD_0":2
					},
					"indices":3,
					"material":0
				}
			]
		}
	],
	"textures":[
		{
			"sampler":0,
			"source":0
		},
		{
			"sampler":0,
			"source":1
		},
		{
			"sampler":0,
			"source":2
		}
	],
	"images":[
		{
			"mimeType":"image/png",
			"name":"Wolf_Quad_Normal",
			"uri":"Wolf_Quad_Normal.png"
		},
		{
			"mimeType":"image/png",
			"name":"Wolf_Quad_Diffuse",
			"uri":"Wolf_Quad_Diffuse.png"
		},
		{
			"mimeType":"image/png",
			"name":"Wolf_Quad_Roughness",
			"uri":"Wolf_Quad_Roughness.png"
		}
	],
	"accessors":[
		{
			"bufferView":0,
			"componentType":5126,
			"count":10961,
			"max":[
				0.19678400456905365,
				0.7669910192489624,
				0.002601000014692545
			],
			"min":[
				-0.20665299892425537,
				-0.6266329884529114,
				-1.0912519693374634
			],
			"type":"VEC3"
		},
		{
			"bufferView":1,
			"componentType":5126,
			"count":10961,
			"type":"VEC3"
		},
		{
			"bufferView":2,
			"componentType":5126,
			"count":10961,
			"type":"VEC2"
		},
		{
			"bufferView":3,
			"componentType":5123,
			"count":52032,
			"type":"SCALAR"
		}
	],
	"bufferViews":[
		{
			"buffer":0,
			"byteLength":131532,
			"byteOffset":0,
			"target":34962
		},
		{
			"buffer":0,
			"byteLength":131532,
			"byteOffset":131532,
			"target":34962
		},
		{
			"buffer":0,
			"byteLength":87688,
			"byteOffset":263064,
			"target":34962
		},
		{
			"buffer":0,
			"byteLength":104064,
			"byteOffset":350752,
			"target":34963
		}
	],
	"samplers":[
		{
			"magFilter":9729,
			"minFilter":9987
		}
	],
	"buffers":[
		{
			"byteLength":454816,
			"uri":"Untitled.bin"
		}
	]
}
