{
	"asset":{
		"generator":"Khronos glTF Blender I/O v4.4.56",
		"version":"2.0"
	},
	"scene":0,
	"scenes":[
		{
			"name":"Scene",
			"nodes":[
				0,
				1
			]
		}
	],
	"nodes":[
		{
			"mesh":0,
			"name":"Cylinder_0",
			"rotation":[
				-0.70710688829422,
				0,
				0,
				0.7071066498756409
			],
			"scale":[
				1.04973566532135,
				1.0497357845306396,
				1.0497357845306396
			],
			"translation":[
				-0.046618763357400894,
				0,
				-0.4154644310474396
			]
		},
		{
			"mesh":1,
			"name":"monkey2_0",
			"rotation":[
				0.71491938829422,
				0,
				0,
				0.6992068886756897
			],
			"scale":[
				1.04973566532135,
				1.04973566532135,
				1.04973566532135
			]
		}
	],
	"materials":[
		{
			"doubleSided":true,
			"name":"stand",
			"pbrMetallicRoughness":{
				"baseColorTexture":{
					"index":0
				},
				"metallicFactor":0,
				"roughnessFactor":0.6000000238418579
			}
		},
		{
			"doubleSided":true,
			"name":"fur_3.001",
			"pbrMetallicRoughness":{
				"baseColorTexture":{
					"index":1
				},
				"metallicFactor":0,
				"roughnessFactor":0.6000000238418579
			}
		}
	],
	"meshes":[
		{
			"name":"Cylinder_0",
			"primitives":[
				{
					"attributes":{
						"POSITION":0,
						"NORMAL":1,
						"TEXCOORD_0":2
					},
					"indices":3,
					"material":0
				}
			]
		},
		{
			"name":"monkey2_0",
			"primitives":[
				{
					"attributes":{
						"POSITION":4,
						"NORMAL":5,
						"TEXCOORD_0":6
					},
					"indices":7,
					"material":1
				}
			]
		}
	],
	"textures":[
		{
			"sampler":0,
			"source":0
		},
		{
			"sampler":0,
			"source":1
		}
	],
	"images":[
		{
			"mimeType":"image/png",
			"name":"stand_baseColor",
			"uri":"stand_baseColor.png"
		},
		{
			"mimeType":"image/jpeg",
			"name":"fur_3.001_baseColor",
			"uri":"fur_3_001_baseColor.jpg"
		}
	],
	"accessors":[
		{
			"bufferView":0,
			"componentType":5126,
			"count":128,
			"max":[
				1,
				1,
				-0.0029299999587237835
			],
			"min":[
				-1,
				-1,
				-0.4423600137233734
			],
			"type":"VEC3"
		},
		{
			"bufferView":1,
			"componentType":5126,
			"count":128,
			"type":"VEC3"
		},
		{
			"bufferView":2,
			"componentType":5126,
			"count":128,
			"type":"VEC2"
		},
		{
			"bufferView":3,
			"componentType":5123,
			"count":372,
			"type":"SCALAR"
		},
		{
			"bufferView":4,
			"componentType":5126,
			"count":1412,
			"max":[
				0.5318999886512756,
				1.2101800441741943,
				1.7024999856948853
			],
			"min":[
				-0.6021000146865845,
				-0.4825800061225891,
				-0.030060000717639923
			],
			"type":"VEC3"
		},
		{
			"bufferView":5,
			"componentType":5126,
			"count":1412,
			"type":"VEC3"
		},
		{
			"bufferView":6,
			"componentType":5126,
			"count":1412,
			"type":"VEC2"
		},
		{
			"bufferView":7,
			"componentType":5123,
			"count":7110,
			"type":"SCALAR"
		}
	],
	"bufferViews":[
		{
			"buffer":0,
			"byteLength":1536,
			"byteOffset":0,
			"target":34962
		},
		{
			"buffer":0,
			"byteLength":1536,
			"byteOffset":1536,
			"target":34962
		},
		{
			"buffer":0,
			"byteLength":1024,
			"byteOffset":3072,
			"target":34962
		},
		{
			"buffer":0,
			"byteLength":744,
			"byteOffset":4096,
			"target":34963
		},
		{
			"buffer":0,
			"byteLength":16944,
			"byteOffset":4840,
			"target":34962
		},
		{
			"buffer":0,
			"byteLength":16944,
			"byteOffset":21784,
			"target":34962
		},
		{
			"buffer":0,
			"byteLength":11296,
			"byteOffset":38728,
			"target":34962
		},
		{
			"buffer":0,
			"byteLength":14220,
			"byteOffset":50024,
			"target":34963
		}
	],
	"samplers":[
		{
			"magFilter":9729,
			"minFilter":9987
		}
	],
	"buffers":[
		{
			"byteLength":64244,
			"uri":"monkey.bin"
		}
	]
}
